<svg xmlns="http://www.w3.org/2000/svg" xmlns:xlink="http://www.w3.org/1999/xlink" width="1366" height="500">
  <defs>
    <linearGradient id="A" x1="50%" y1="0%" x2="50%" y2="100%">
      <stop offset="0%" stop-color="#FFAABB"/>
      <stop offset="80%" stop-color="#E97DA5"/>
    </linearGradient>
    <path id="B" d="M108 0h18v6h6v6h6v18h-6v6h-6v6h-18v-6h-6v-6h-6V12h6V6h6V0zm12 6h-6v6h-6v6h-6v6h6v6h6v6h6v-6h6v-6h6v-6h-6v-6h-6V6zm-6 12h6v6h-6v-6zm24 24h6v6h-6v-6z"/>
    <path id="C" d="M108 48h18v6h6v6h6v18h-6v6h-6v6h-18v-6h-6v-6h-6V60h6v-6h6v-6zm12 6h-6v6h-6v6h-6v6h6v6h6v6h6v-6h6v-6h6v-6h-6v-6h-6v-6zm-6 12h6v6h-6v-6zm24 24h6v6h-6v-6z"/>
    <path id="D" d="M12 96h18v6h6v6h6v18h-6v6h-6v6H12v-6H6v-6H0v-18h6v-6h6v-6zm12 6h-6v6h-6v6H6v6h6v6h6v6h6v-6h6v-6h6v-6h-6v-6h-6v-6zm-6 12h6v6h-6v-6zm24 24h6v6h-6v-6z"/>
    <path id="E" d="M60 96h18v6h6v6h6v18h-6v6h-6v6H60v-6h-6v-6h-6v-18h6v-6h6v-6zm12 6h-6v6h-6v6h-6v6h6v6h6v6h6v-6h6v-6h6v-6h-6v-6h-6v-6zm-6 12h6v6h-6v-6zm24 24h6v6h-6v-6z"/>
    <path id="F" d="M108 96h18v6h6v6h6v18h-6v6h-6v6h-18v-6h-6v-6h-6v-18h6v-6h6v-6zm12 6h-6v6h-6v6h-6v6h6v6h6v6h6v-6h6v-6h6v-6h-6v-6h-6v-6zm-6 12h6v6h-6v-6zm24 24h6v6h-6v-6z"/>
  </defs>
  <path fill="url(#A)" d="M0 0h1366v500H0z"/>
  <g fill="#E97DA5">
    <path d="M12 0h18v6h6v6h6v18h-6v6h-6v6H12v-6H6v-6H0V12h6V6h6V0zm12 6h-6v6h-6v6H6v6h6v6h6v6h6v-6h6v-6h6v-6h-6v-6h-6V6zm-6 12h6v6h-6v-6zm24 24h6v6h-6v-6zM60 0h18v6h6v6h6v18h-6v6h-6v6H60v-6h-6v-6h-6V12h6V6h6V0zm12 6h-6v6h-6v6h-6v6h6v6h6v6h6v-6h6v-6h6v-6h-6v-6h-6V6zm-6 12h6v6h-6v-6zm24 24h6v6h-6v-6z"/>
    <use xlink:href="#B"/>
    <use xlink:href="#B" x="48"/>
    <use xlink:href="#B" x="96"/>
    <use xlink:href="#B" x="144"/>
    <use xlink:href="#B" x="192"/>
    <use xlink:href="#B" x="240"/>
    <use xlink:href="#B" x="288"/>
    <use xlink:href="#B" x="336"/>
    <use xlink:href="#B" x="384"/>
    <use xlink:href="#B" x="432"/>
    <use xlink:href="#B" x="480"/>
    <use xlink:href="#B" x="528"/>
    <use xlink:href="#B" x="576"/>
    <use xlink:href="#B" x="624"/>
    <use xlink:href="#B" x="672"/>
    <use xlink:href="#B" x="720"/>
    <use xlink:href="#B" x="768"/>
    <use xlink:href="#B" x="816"/>
    <use xlink:href="#B" x="864"/>
    <use xlink:href="#B" x="912"/>
    <use xlink:href="#B" x="960"/>
    <use xlink:href="#B" x="1008"/>
    <use xlink:href="#B" x="1056"/>
    <use xlink:href="#B" x="1104"/>
    <use xlink:href="#B" x="1152"/>
    <use xlink:href="#B" x="1200"/>
    <path d="M12 48h18v6h6v6h6v18h-6v6h-6v6H12v-6H6v-6H0V60h6v-6h6v-6zm12 6h-6v6h-6v6H6v6h6v6h6v6h6v-6h6v-6h6v-6h-6v-6h-6v-6zm-6 12h6v6h-6v-6zm24 24h6v6h-6v-6zm18-42h18v6h6v6h6v18h-6v6h-6v6H60v-6h-6v-6h-6V60h6v-6h6v-6zm12 6h-6v6h-6v6h-6v6h6v6h6v6h6v-6h6v-6h6v-6h-6v-6h-6v-6zm-6 12h6v6h-6v-6zm24 24h6v6h-6v-6z"/>
    <use xlink:href="#C"/>
    <use xlink:href="#C" x="48"/>
    <use xlink:href="#C" x="96"/>
    <use xlink:href="#C" x="144"/>
    <use xlink:href="#C" x="192"/>
    <use xlink:href="#C" x="240"/>
    <use xlink:href="#C" x="288"/>
    <use xlink:href="#C" x="336"/>
    <use xlink:href="#C" x="384"/>
    <use xlink:href="#C" x="432"/>
    <use xlink:href="#C" x="480"/>
    <use xlink:href="#C" x="528"/>
    <use xlink:href="#C" x="576"/>
    <use xlink:href="#C" x="624"/>
    <use xlink:href="#C" x="672"/>
    <use xlink:href="#C" x="720"/>
    <use xlink:href="#C" x="768"/>
    <use xlink:href="#C" x="816"/>
    <use xlink:href="#C" x="864"/>
    <use xlink:href="#C" x="912"/>
    <use xlink:href="#C" x="960"/>
    <use xlink:href="#C" x="1008"/>
    <use xlink:href="#C" x="1056"/>
    <use xlink:href="#C" x="1104"/>
    <use xlink:href="#C" x="1152"/>
    <use xlink:href="#C" x="1200"/>
    <use xlink:href="#D"/>
    <use xlink:href="#E"/>
    <use xlink:href="#F"/>
    <use xlink:href="#F" x="48"/>
    <use xlink:href="#F" x="96"/>
    <use xlink:href="#F" x="144"/>
    <use xlink:href="#F" x="192"/>
    <use xlink:href="#F" x="240"/>
    <use xlink:href="#F" x="288"/>
    <use xlink:href="#F" x="336"/>
    <use xlink:href="#F" x="384"/>
    <use xlink:href="#F" x="432"/>
    <use xlink:href="#F" x="480"/>
    <use xlink:href="#F" x="528"/>
    <use xlink:href="#F" x="576"/>
    <use xlink:href="#F" x="624"/>
    <use xlink:href="#F" x="672"/>
    <use xlink:href="#F" x="720"/>
    <use xlink:href="#F" x="768"/>
    <use xlink:href="#F" x="816"/>
    <use xlink:href="#F" x="864"/>
    <use xlink:href="#F" x="912"/>
    <use xlink:href="#F" x="960"/>
    <use xlink:href="#F" x="1008"/>
    <use xlink:href="#F" x="1056"/>
    <use xlink:href="#F" x="1104"/>
    <use xlink:href="#F" x="1152"/>
    <use xlink:href="#F" x="1200"/>
    <use xlink:href="#D" y="48"/>
    <use xlink:href="#E" y="48"/>
    <use xlink:href="#F" y="48"/>
    <use xlink:href="#F" x="48" y="48"/>
    <use xlink:href="#F" x="96" y="48"/>
    <use xlink:href="#F" x="144" y="48"/>
    <use xlink:href="#F" x="192" y="48"/>
    <use xlink:href="#F" x="240" y="48"/>
    <use xlink:href="#F" x="288" y="48"/>
    <use xlink:href="#F" x="336" y="48"/>
    <use xlink:href="#F" x="384" y="48"/>
    <use xlink:href="#F" x="432" y="48"/>
    <use xlink:href="#F" x="480" y="48"/>
    <use xlink:href="#F" x="528" y="48"/>
    <use xlink:href="#F" x="576" y="48"/>
    <use xlink:href="#F" x="624" y="48"/>
    <use xlink:href="#F" x="672" y="48"/>
    <use xlink:href="#F" x="720" y="48"/>
    <use xlink:href="#F" x="768" y="48"/>
    <use xlink:href="#F" x="816" y="48"/>
    <use xlink:href="#F" x="864" y="48"/>
    <use xlink:href="#F" x="912" y="48"/>
    <use xlink:href="#F" x="960" y="48"/>
    <use xlink:href="#F" x="1008" y="48"/>
    <use xlink:href="#F" x="1056" y="48"/>
    <use xlink:href="#F" x="1104" y="48"/>
    <use xlink:href="#F" x="1152" y="48"/>
    <use xlink:href="#F" x="1200" y="48"/>
    <use xlink:href="#D" y="96"/>
    <use xlink:href="#E" y="96"/>
    <use xlink:href="#F" y="96"/>
    <use xlink:href="#F" x="48" y="96"/>
    <use xlink:href="#F" x="96" y="96"/>
    <use xlink:href="#F" x="144" y="96"/>
    <use xlink:href="#F" x="192" y="96"/>
    <use xlink:href="#F" x="240" y="96"/>
    <use xlink:href="#F" x="288" y="96"/>
    <use xlink:href="#F" x="336" y="96"/>
    <use xlink:href="#F" x="384" y="96"/>
    <use xlink:href="#F" x="432" y="96"/>
    <use xlink:href="#F" x="480" y="96"/>
    <use xlink:href="#F" x="528" y="96"/>
    <use xlink:href="#F" x="576" y="96"/>
    <use xlink:href="#F" x="624" y="96"/>
    <use xlink:href="#F" x="672" y="96"/>
    <use xlink:href="#F" x="720" y="96"/>
    <use xlink:href="#F" x="768" y="96"/>
    <use xlink:href="#F" x="816" y="96"/>
    <use xlink:href="#F" x="864" y="96"/>
    <use xlink:href="#F" x="912" y="96"/>
    <use xlink:href="#F" x="960" y="96"/>
    <use xlink:href="#F" x="1008" y="96"/>
    <use xlink:href="#F" x="1056" y="96"/>
    <use xlink:href="#F" x="1104" y="96"/>
    <use xlink:href="#F" x="1152" y="96"/>
    <use xlink:href="#F" x="1200" y="96"/>
    <use xlink:href="#D" y="144"/>
    <use xlink:href="#E" y="144"/>
    <use xlink:href="#F" y="144"/>
    <use xlink:href="#F" x="48" y="144"/>
    <use xlink:href="#F" x="96" y="144"/>
    <use xlink:href="#F" x="144" y="144"/>
    <use xlink:href="#F" x="192" y="144"/>
    <use xlink:href="#F" x="240" y="144"/>
    <use xlink:href="#F" x="288" y="144"/>
    <use xlink:href="#F" x="336" y="144"/>
    <use xlink:href="#F" x="384" y="144"/>
    <use xlink:href="#F" x="432" y="144"/>
    <use xlink:href="#F" x="480" y="144"/>
    <use xlink:href="#F" x="528" y="144"/>
    <use xlink:href="#F" x="576" y="144"/>
    <use xlink:href="#F" x="624" y="144"/>
    <use xlink:href="#F" x="672" y="144"/>
    <use xlink:href="#F" x="720" y="144"/>
    <use xlink:href="#F" x="768" y="144"/>
    <use xlink:href="#F" x="816" y="144"/>
    <use xlink:href="#F" x="864" y="144"/>
    <use xlink:href="#F" x="912" y="144"/>
    <use xlink:href="#F" x="960" y="144"/>
    <use xlink:href="#F" x="1008" y="144"/>
    <use xlink:href="#F" x="1056" y="144"/>
    <use xlink:href="#F" x="1104" y="144"/>
    <use xlink:href="#F" x="1152" y="144"/>
    <use xlink:href="#F" x="1200" y="144"/>
    <use xlink:href="#D" y="192"/>
    <use xlink:href="#E" y="192"/>
    <use xlink:href="#F" y="192"/>
    <use xlink:href="#F" x="48" y="192"/>
    <use xlink:href="#F" x="96" y="192"/>
    <use xlink:href="#F" x="144" y="192"/>
    <use xlink:href="#F" x="192" y="192"/>
    <use xlink:href="#F" x="240" y="192"/>
    <use xlink:href="#F" x="288" y="192"/>
    <use xlink:href="#F" x="336" y="192"/>
    <use xlink:href="#F" x="384" y="192"/>
    <use xlink:href="#F" x="432" y="192"/>
    <use xlink:href="#F" x="480" y="192"/>
    <use xlink:href="#F" x="528" y="192"/>
    <use xlink:href="#F" x="576" y="192"/>
    <use xlink:href="#F" x="624" y="192"/>
    <use xlink:href="#F" x="672" y="192"/>
    <use xlink:href="#F" x="720" y="192"/>
    <use xlink:href="#F" x="768" y="192"/>
    <use xlink:href="#F" x="816" y="192"/>
    <use xlink:href="#F" x="864" y="192"/>
    <use xlink:href="#F" x="912" y="192"/>
    <use xlink:href="#F" x="960" y="192"/>
    <use xlink:href="#F" x="1008" y="192"/>
    <use xlink:href="#F" x="1056" y="192"/>
    <use xlink:href="#F" x="1104" y="192"/>
    <use xlink:href="#F" x="1152" y="192"/>
    <use xlink:href="#F" x="1200" y="192"/>
    <use xlink:href="#D" y="240"/>
    <use xlink:href="#E" y="240"/>
    <use xlink:href="#F" y="240"/>
    <use xlink:href="#F" x="48" y="240"/>
    <use xlink:href="#F" x="96" y="240"/>
    <use xlink:href="#F" x="144" y="240"/>
    <use xlink:href="#F" x="192" y="240"/>
    <use xlink:href="#F" x="240" y="240"/>
    <use xlink:href="#F" x="288" y="240"/>
    <use xlink:href="#F" x="336" y="240"/>
    <use xlink:href="#F" x="384" y="240"/>
    <use xlink:href="#F" x="432" y="240"/>
    <use xlink:href="#F" x="480" y="240"/>
    <use xlink:href="#F" x="528" y="240"/>
    <use xlink:href="#F" x="576" y="240"/>
    <use xlink:href="#F" x="624" y="240"/>
    <use xlink:href="#F" x="672" y="240"/>
    <use xlink:href="#F" x="720" y="240"/>
    <use xlink:href="#F" x="768" y="240"/>
    <use xlink:href="#F" x="816" y="240"/>
    <use xlink:href="#F" x="864" y="240"/>
    <use xlink:href="#F" x="912" y="240"/>
    <use xlink:href="#F" x="960" y="240"/>
    <use xlink:href="#F" x="1008" y="240"/>
    <use xlink:href="#F" x="1056" y="240"/>
    <use xlink:href="#F" x="1104" y="240"/>
    <use xlink:href="#F" x="1152" y="240"/>
    <use xlink:href="#F" x="1200" y="240"/>
    <use xlink:href="#D" y="288"/>
    <use xlink:href="#E" y="288"/>
    <use xlink:href="#F" y="288"/>
    <use xlink:href="#F" x="48" y="288"/>
    <use xlink:href="#F" x="96" y="288"/>
    <use xlink:href="#F" x="144" y="288"/>
    <use xlink:href="#F" x="192" y="288"/>
    <use xlink:href="#F" x="240" y="288"/>
    <use xlink:href="#F" x="288" y="288"/>
    <use xlink:href="#F" x="336" y="288"/>
    <use xlink:href="#F" x="384" y="288"/>
    <use xlink:href="#F" x="432" y="288"/>
    <use xlink:href="#F" x="480" y="288"/>
    <use xlink:href="#F" x="528" y="288"/>
    <use xlink:href="#F" x="576" y="288"/>
    <use xlink:href="#F" x="624" y="288"/>
    <use xlink:href="#F" x="672" y="288"/>
    <use xlink:href="#F" x="720" y="288"/>
    <use xlink:href="#F" x="768" y="288"/>
    <use xlink:href="#F" x="816" y="288"/>
    <use xlink:href="#F" x="864" y="288"/>
    <use xlink:href="#F" x="912" y="288"/>
    <use xlink:href="#F" x="960" y="288"/>
    <use xlink:href="#F" x="1008" y="288"/>
    <use xlink:href="#F" x="1056" y="288"/>
    <use xlink:href="#F" x="1104" y="288"/>
    <use xlink:href="#F" x="1152" y="288"/>
    <use xlink:href="#F" x="1200" y="288"/>
    <use xlink:href="#D" y="336"/>
    <use xlink:href="#E" y="336"/>
    <use xlink:href="#F" y="336"/>
    <use xlink:href="#F" x="48" y="336"/>
    <use xlink:href="#F" x="96" y="336"/>
    <use xlink:href="#F" x="144" y="336"/>
    <use xlink:href="#F" x="192" y="336"/>
    <use xlink:href="#F" x="240" y="336"/>
    <use xlink:href="#F" x="288" y="336"/>
    <use xlink:href="#F" x="336" y="336"/>
    <use xlink:href="#F" x="384" y="336"/>
    <use xlink:href="#F" x="432" y="336"/>
    <use xlink:href="#F" x="480" y="336"/>
    <use xlink:href="#F" x="528" y="336"/>
    <use xlink:href="#F" x="576" y="336"/>
    <use xlink:href="#F" x="624" y="336"/>
    <use xlink:href="#F" x="672" y="336"/>
    <use xlink:href="#F" x="720" y="336"/>
    <use xlink:href="#F" x="768" y="336"/>
    <use xlink:href="#F" x="816" y="336"/>
    <use xlink:href="#F" x="864" y="336"/>
    <use xlink:href="#F" x="912" y="336"/>
    <use xlink:href="#F" x="960" y="336"/>
    <use xlink:href="#F" x="1008" y="336"/>
    <use xlink:href="#F" x="1056" y="336"/>
    <use xlink:href="#F" x="1104" y="336"/>
    <use xlink:href="#F" x="1152" y="336"/>
    <use xlink:href="#F" x="1200" y="336"/>
  </g>
</svg>
